<mxfile host="65bd71144e">
    <diagram id="cyS1tA6iP7zQ1xt31NCO" name="Page-1">
        <mxGraphModel dx="1003" dy="682" grid="1" gridSize="10" guides="1" tooltips="1" connect="1" arrows="1" fold="1" page="1" pageScale="1" pageWidth="827" pageHeight="1169" math="0" shadow="0">
            <root>
                <mxCell id="0"/>
                <mxCell id="1" parent="0"/>
                <mxCell id="126" value="" style="rounded=0;whiteSpace=wrap;html=1;" parent="1" vertex="1">
                    <mxGeometry x="310" y="209.5" width="590" height="720" as="geometry"/>
                </mxCell>
                <mxCell id="71" value="" style="rounded=0;whiteSpace=wrap;html=1;" parent="1" vertex="1">
                    <mxGeometry x="239" y="1209" width="900" height="1090" as="geometry"/>
                </mxCell>
                <mxCell id="78" style="edgeStyle=none;html=1;entryX=0.037;entryY=0.216;entryDx=0;entryDy=0;entryPerimeter=0;" parent="1" source="5" target="69" edge="1">
                    <mxGeometry relative="1" as="geometry"/>
                </mxCell>
                <mxCell id="274" style="edgeStyle=none;html=1;entryX=0;entryY=0.5;entryDx=0;entryDy=0;fontSize=14;" parent="1" source="5" target="264" edge="1">
                    <mxGeometry relative="1" as="geometry"/>
                </mxCell>
                <mxCell id="275" style="edgeStyle=none;html=1;entryX=0;entryY=0.5;entryDx=0;entryDy=0;fontSize=14;" parent="1" source="5" target="55" edge="1">
                    <mxGeometry relative="1" as="geometry"/>
                </mxCell>
                <mxCell id="276" style="edgeStyle=none;html=1;entryX=0;entryY=0.5;entryDx=0;entryDy=0;fontSize=14;" parent="1" source="5" target="52" edge="1">
                    <mxGeometry relative="1" as="geometry"/>
                </mxCell>
                <mxCell id="5" value="&lt;font color=&quot;#ff94e6&quot;&gt;Chef de projet&lt;/font&gt;" style="shape=umlActor;verticalLabelPosition=bottom;verticalAlign=top;html=1;outlineConnect=0;" parent="1" vertex="1">
                    <mxGeometry x="110" y="1711" width="60" height="110" as="geometry"/>
                </mxCell>
                <mxCell id="153" style="edgeStyle=none;html=1;dashed=1;fontSize=14;" parent="1" source="41" target="43" edge="1">
                    <mxGeometry relative="1" as="geometry"/>
                </mxCell>
                <mxCell id="154" value="&quot;include&quot;" style="edgeLabel;html=1;align=center;verticalAlign=middle;resizable=0;points=[];fontSize=14;" parent="153" vertex="1" connectable="0">
                    <mxGeometry x="-0.4214" y="-1" relative="1" as="geometry">
                        <mxPoint x="-1" y="-24" as="offset"/>
                    </mxGeometry>
                </mxCell>
                <mxCell id="41" value="Lister les pièces et métriques" style="ellipse;whiteSpace=wrap;html=1;" parent="1" vertex="1">
                    <mxGeometry x="474" y="499.5" width="160" height="80" as="geometry"/>
                </mxCell>
                <mxCell id="147" style="edgeStyle=none;html=1;entryX=0.5;entryY=0;entryDx=0;entryDy=0;dashed=1;" parent="1" source="43" target="129" edge="1">
                    <mxGeometry relative="1" as="geometry"/>
                </mxCell>
                <mxCell id="149" value="&lt;font style=&quot;font-size: 14px;&quot;&gt;&quot;include&quot;&lt;/font&gt;" style="edgeLabel;html=1;align=center;verticalAlign=middle;resizable=0;points=[];" parent="147" vertex="1" connectable="0">
                    <mxGeometry x="0.2069" y="1" relative="1" as="geometry">
                        <mxPoint as="offset"/>
                    </mxGeometry>
                </mxCell>
                <mxCell id="43" value="Accès tableau de bord qualité" style="ellipse;whiteSpace=wrap;html=1;" parent="1" vertex="1">
                    <mxGeometry x="474" y="279.5" width="160" height="80" as="geometry"/>
                </mxCell>
                <mxCell id="44" value="Créations des utilisateurs" style="ellipse;whiteSpace=wrap;html=1;fillColor=#fa6800;fontColor=#000000;strokeColor=#C73500;" parent="1" vertex="1">
                    <mxGeometry x="20" y="10" width="150" height="80" as="geometry"/>
                </mxCell>
                <mxCell id="49" value="Se connecter" style="ellipse;whiteSpace=wrap;html=1;fillColor=none;" parent="1" vertex="1">
                    <mxGeometry x="982" y="1796" width="120" height="80" as="geometry"/>
                </mxCell>
                <mxCell id="282" style="edgeStyle=none;html=1;dashed=1;fontSize=14;" parent="1" source="52" target="49" edge="1">
                    <mxGeometry relative="1" as="geometry"/>
                </mxCell>
                <mxCell id="285" value="&quot;include&quot;" style="edgeLabel;html=1;align=center;verticalAlign=middle;resizable=0;points=[];fontSize=14;" parent="282" vertex="1" connectable="0">
                    <mxGeometry x="-0.2608" relative="1" as="geometry">
                        <mxPoint as="offset"/>
                    </mxGeometry>
                </mxCell>
                <mxCell id="52" value="Consulter référentiel pièces" style="ellipse;whiteSpace=wrap;html=1;" parent="1" vertex="1">
                    <mxGeometry x="429" y="1301" width="180" height="80" as="geometry"/>
                </mxCell>
                <mxCell id="283" style="edgeStyle=none;html=1;dashed=1;fontSize=14;" parent="1" source="55" target="49" edge="1">
                    <mxGeometry relative="1" as="geometry"/>
                </mxCell>
                <mxCell id="284" value="&quot;include&quot;" style="edgeLabel;html=1;align=center;verticalAlign=middle;resizable=0;points=[];fontSize=14;" parent="283" vertex="1" connectable="0">
                    <mxGeometry x="-0.2291" relative="1" as="geometry">
                        <mxPoint as="offset"/>
                    </mxGeometry>
                </mxCell>
                <mxCell id="55" value="Consulter référentiel matériels" style="ellipse;whiteSpace=wrap;html=1;" parent="1" vertex="1">
                    <mxGeometry x="409" y="1641" width="180" height="80" as="geometry"/>
                </mxCell>
                <mxCell id="268" style="edgeStyle=none;html=1;dashed=1;fontSize=14;" parent="1" source="56" target="264" edge="1">
                    <mxGeometry relative="1" as="geometry"/>
                </mxCell>
                <mxCell id="272" value="&quot;include&quot;" style="edgeLabel;html=1;align=center;verticalAlign=middle;resizable=0;points=[];fontSize=14;" parent="268" vertex="1" connectable="0">
                    <mxGeometry x="-0.1895" y="-3" relative="1" as="geometry">
                        <mxPoint as="offset"/>
                    </mxGeometry>
                </mxCell>
                <mxCell id="56" value="Créer campagnes" style="ellipse;whiteSpace=wrap;html=1;" parent="1" vertex="1">
                    <mxGeometry x="559" y="1991" width="180" height="80" as="geometry"/>
                </mxCell>
                <mxCell id="267" style="edgeStyle=none;html=1;entryX=1;entryY=1;entryDx=0;entryDy=0;dashed=1;fontSize=14;" parent="1" source="58" target="264" edge="1">
                    <mxGeometry relative="1" as="geometry"/>
                </mxCell>
                <mxCell id="271" value="&quot;include&quot;" style="edgeLabel;html=1;align=center;verticalAlign=middle;resizable=0;points=[];fontSize=14;" parent="267" vertex="1" connectable="0">
                    <mxGeometry x="-0.4307" y="-2" relative="1" as="geometry">
                        <mxPoint x="-21" y="-12" as="offset"/>
                    </mxGeometry>
                </mxCell>
                <mxCell id="58" value="Charger une campagne" style="ellipse;whiteSpace=wrap;html=1;" parent="1" vertex="1">
                    <mxGeometry x="699" y="1876" width="150" height="80" as="geometry"/>
                </mxCell>
                <mxCell id="266" style="edgeStyle=none;html=1;dashed=1;fontSize=14;" parent="1" source="59" target="264" edge="1">
                    <mxGeometry relative="1" as="geometry"/>
                </mxCell>
                <mxCell id="273" value="&quot;include&quot;" style="edgeLabel;html=1;align=center;verticalAlign=middle;resizable=0;points=[];fontSize=14;" parent="266" vertex="1" connectable="0">
                    <mxGeometry x="-0.2757" relative="1" as="geometry">
                        <mxPoint y="-5" as="offset"/>
                    </mxGeometry>
                </mxCell>
                <mxCell id="59" value="Supprimer une campagne" style="ellipse;whiteSpace=wrap;html=1;" parent="1" vertex="1">
                    <mxGeometry x="329" y="1921" width="150" height="80" as="geometry"/>
                </mxCell>
                <mxCell id="259" style="edgeStyle=none;html=1;entryX=0.5;entryY=1;entryDx=0;entryDy=0;fontSize=14;dashed=1;" parent="1" source="69" target="49" edge="1">
                    <mxGeometry relative="1" as="geometry"/>
                </mxCell>
                <mxCell id="260" value="&quot;include&quot;" style="edgeLabel;html=1;align=center;verticalAlign=middle;resizable=0;points=[];fontSize=14;" parent="259" vertex="1" connectable="0">
                    <mxGeometry x="0.2629" y="2" relative="1" as="geometry">
                        <mxPoint x="-44" y="40" as="offset"/>
                    </mxGeometry>
                </mxCell>
                <mxCell id="69" value="Se déconnecter" style="ellipse;whiteSpace=wrap;html=1;fillColor=none;" parent="1" vertex="1">
                    <mxGeometry x="496" y="2181" width="120" height="80" as="geometry"/>
                </mxCell>
                <mxCell id="81" value="" style="rounded=0;whiteSpace=wrap;html=1;" parent="1" vertex="1">
                    <mxGeometry x="1730" y="34.5" width="970" height="1070" as="geometry"/>
                </mxCell>
                <mxCell id="159" style="edgeStyle=none;html=1;entryX=0;entryY=0.5;entryDx=0;entryDy=0;fontSize=14;" parent="1" source="82" target="84" edge="1">
                    <mxGeometry relative="1" as="geometry"/>
                </mxCell>
                <mxCell id="160" style="edgeStyle=none;html=1;entryX=0.001;entryY=0.311;entryDx=0;entryDy=0;fontSize=14;entryPerimeter=0;" parent="1" target="85" edge="1">
                    <mxGeometry relative="1" as="geometry">
                        <mxPoint x="1630" y="530" as="sourcePoint"/>
                    </mxGeometry>
                </mxCell>
                <mxCell id="161" style="edgeStyle=none;html=1;entryX=0;entryY=0.5;entryDx=0;entryDy=0;fontSize=14;" parent="1" source="82" target="86" edge="1">
                    <mxGeometry relative="1" as="geometry"/>
                </mxCell>
                <mxCell id="82" value="&lt;font color=&quot;#93e193&quot;&gt;Chargé de référentiel&lt;/font&gt;" style="shape=umlActor;verticalLabelPosition=bottom;verticalAlign=top;html=1;outlineConnect=0;" parent="1" vertex="1">
                    <mxGeometry x="1570" y="460" width="60" height="110" as="geometry"/>
                </mxCell>
                <mxCell id="83" value="Se connecter" style="ellipse;whiteSpace=wrap;html=1;fillColor=none;" parent="1" vertex="1">
                    <mxGeometry x="2550" y="980" width="120" height="80" as="geometry"/>
                </mxCell>
                <mxCell id="162" style="edgeStyle=none;html=1;entryX=0;entryY=0;entryDx=0;entryDy=0;fontSize=14;dashed=1;exitX=0.903;exitY=0.833;exitDx=0;exitDy=0;exitPerimeter=0;" parent="1" source="84" target="83" edge="1">
                    <mxGeometry relative="1" as="geometry"/>
                </mxCell>
                <mxCell id="163" value="&quot;include&quot;" style="edgeLabel;html=1;align=center;verticalAlign=middle;resizable=0;points=[];fontSize=14;" parent="162" vertex="1" connectable="0">
                    <mxGeometry x="0.0887" y="-1" relative="1" as="geometry">
                        <mxPoint as="offset"/>
                    </mxGeometry>
                </mxCell>
                <mxCell id="84" value="Consulter référentiel pièces" style="ellipse;whiteSpace=wrap;html=1;" parent="1" vertex="1">
                    <mxGeometry x="2140" y="220" width="180" height="80" as="geometry"/>
                </mxCell>
                <mxCell id="165" style="edgeStyle=none;html=1;entryX=0;entryY=0.5;entryDx=0;entryDy=0;dashed=1;fontSize=14;" parent="1" target="83" edge="1">
                    <mxGeometry relative="1" as="geometry">
                        <mxPoint x="2150" y="850" as="sourcePoint"/>
                    </mxGeometry>
                </mxCell>
                <mxCell id="166" value="&quot;include&quot;" style="edgeLabel;html=1;align=center;verticalAlign=middle;resizable=0;points=[];fontSize=14;" parent="165" vertex="1" connectable="0">
                    <mxGeometry x="0.2019" y="-3" relative="1" as="geometry">
                        <mxPoint x="-56" y="8" as="offset"/>
                    </mxGeometry>
                </mxCell>
                <mxCell id="85" value="Consulter référentiel matériels" style="ellipse;whiteSpace=wrap;html=1;" parent="1" vertex="1">
                    <mxGeometry x="2000" y="790" width="180" height="80" as="geometry"/>
                </mxCell>
                <mxCell id="155" style="edgeStyle=none;html=1;exitX=1;exitY=0.5;exitDx=0;exitDy=0;entryX=0.5;entryY=1;entryDx=0;entryDy=0;dashed=1;fontSize=14;" parent="1" source="86" target="83" edge="1">
                    <mxGeometry relative="1" as="geometry"/>
                </mxCell>
                <mxCell id="156" value="&quot;include&quot;" style="edgeLabel;html=1;align=center;verticalAlign=middle;resizable=0;points=[];fontSize=14;" parent="155" vertex="1" connectable="0">
                    <mxGeometry x="0.3072" y="-3" relative="1" as="geometry">
                        <mxPoint x="-119" y="-6" as="offset"/>
                    </mxGeometry>
                </mxCell>
                <mxCell id="86" value="Se déconnecter" style="ellipse;whiteSpace=wrap;html=1;fillColor=none;" parent="1" vertex="1">
                    <mxGeometry x="1967" y="1000" width="120" height="80" as="geometry"/>
                </mxCell>
                <mxCell id="157" style="edgeStyle=none;html=1;dashed=1;fontSize=14;" parent="1" source="87" target="84" edge="1">
                    <mxGeometry relative="1" as="geometry"/>
                </mxCell>
                <mxCell id="158" value="&quot;include&quot;" style="edgeLabel;html=1;align=center;verticalAlign=middle;resizable=0;points=[];fontSize=14;" parent="157" vertex="1" connectable="0">
                    <mxGeometry x="-0.4593" y="-1" relative="1" as="geometry">
                        <mxPoint x="9" y="15" as="offset"/>
                    </mxGeometry>
                </mxCell>
                <mxCell id="87" value="Intégrer un référentiel pièces" style="ellipse;whiteSpace=wrap;html=1;" parent="1" vertex="1">
                    <mxGeometry x="1865" y="140" width="150" height="80" as="geometry"/>
                </mxCell>
                <mxCell id="168" style="edgeStyle=none;html=1;entryX=1;entryY=0;entryDx=0;entryDy=0;dashed=1;fontSize=14;" parent="1" source="88" target="84" edge="1">
                    <mxGeometry relative="1" as="geometry"/>
                </mxCell>
                <mxCell id="169" value="&quot;include&quot;" style="edgeLabel;html=1;align=center;verticalAlign=middle;resizable=0;points=[];fontSize=14;" parent="168" vertex="1" connectable="0">
                    <mxGeometry x="-0.4723" y="1" relative="1" as="geometry">
                        <mxPoint x="-14" y="14" as="offset"/>
                    </mxGeometry>
                </mxCell>
                <mxCell id="88" value="MAJ référentiel pièces" style="ellipse;whiteSpace=wrap;html=1;" parent="1" vertex="1">
                    <mxGeometry x="2470" y="160" width="150" height="80" as="geometry"/>
                </mxCell>
                <mxCell id="170" style="edgeStyle=none;html=1;dashed=1;fontSize=14;entryX=0.253;entryY=0.002;entryDx=0;entryDy=0;entryPerimeter=0;" parent="1" source="89" target="85" edge="1">
                    <mxGeometry relative="1" as="geometry">
                        <mxPoint x="2030" y="800" as="targetPoint"/>
                    </mxGeometry>
                </mxCell>
                <mxCell id="173" value="&quot;include&quot;" style="edgeLabel;html=1;align=center;verticalAlign=middle;resizable=0;points=[];fontSize=14;" parent="170" vertex="1" connectable="0">
                    <mxGeometry x="-0.4114" y="3" relative="1" as="geometry">
                        <mxPoint y="9" as="offset"/>
                    </mxGeometry>
                </mxCell>
                <mxCell id="89" value="Intégrer référentiel matériels" style="ellipse;whiteSpace=wrap;html=1;" parent="1" vertex="1">
                    <mxGeometry x="1920" y="639.5" width="180" height="80" as="geometry"/>
                </mxCell>
                <mxCell id="171" style="edgeStyle=none;html=1;dashed=1;fontSize=14;" parent="1" source="90" target="85" edge="1">
                    <mxGeometry relative="1" as="geometry"/>
                </mxCell>
                <mxCell id="172" value="&quot;include&quot;" style="edgeLabel;html=1;align=center;verticalAlign=middle;resizable=0;points=[];fontSize=14;" parent="171" vertex="1" connectable="0">
                    <mxGeometry x="0.4062" y="2" relative="1" as="geometry">
                        <mxPoint x="18" y="-19" as="offset"/>
                    </mxGeometry>
                </mxCell>
                <mxCell id="90" value="MAJ référentiel matériels" style="ellipse;whiteSpace=wrap;html=1;" parent="1" vertex="1">
                    <mxGeometry x="2258" y="790" width="180" height="80" as="geometry"/>
                </mxCell>
                <mxCell id="100" value="" style="rounded=0;whiteSpace=wrap;html=1;" parent="1" vertex="1">
                    <mxGeometry x="1730" y="1260" width="2400" height="1070" as="geometry"/>
                </mxCell>
                <mxCell id="204" style="edgeStyle=none;html=1;entryX=0;entryY=0.5;entryDx=0;entryDy=0;fontSize=14;" parent="1" source="101" target="112" edge="1">
                    <mxGeometry relative="1" as="geometry"/>
                </mxCell>
                <mxCell id="255" style="edgeStyle=none;html=1;entryX=0;entryY=0.5;entryDx=0;entryDy=0;fontSize=14;" parent="1" source="101" target="113" edge="1">
                    <mxGeometry relative="1" as="geometry"/>
                </mxCell>
                <mxCell id="256" style="edgeStyle=none;html=1;entryX=0;entryY=0.5;entryDx=0;entryDy=0;fontSize=14;" parent="1" source="101" target="111" edge="1">
                    <mxGeometry relative="1" as="geometry"/>
                </mxCell>
                <mxCell id="257" style="edgeStyle=none;html=1;entryX=0;entryY=0;entryDx=0;entryDy=0;fontSize=14;" parent="1" source="101" target="102" edge="1">
                    <mxGeometry relative="1" as="geometry"/>
                </mxCell>
                <mxCell id="101" value="&lt;font color=&quot;#ffff33&quot;&gt;Auditeurs&lt;/font&gt;" style="shape=umlActor;verticalLabelPosition=bottom;verticalAlign=top;html=1;outlineConnect=0;" parent="1" vertex="1">
                    <mxGeometry x="1570" y="1723.5" width="60" height="110" as="geometry"/>
                </mxCell>
                <mxCell id="241" style="edgeStyle=none;html=1;dashed=1;fontSize=14;" parent="1" source="102" target="110" edge="1">
                    <mxGeometry relative="1" as="geometry"/>
                </mxCell>
                <mxCell id="254" value="&quot;include&quot;" style="edgeLabel;html=1;align=center;verticalAlign=middle;resizable=0;points=[];fontSize=14;" parent="241" vertex="1" connectable="0">
                    <mxGeometry x="0.0978" y="-1" relative="1" as="geometry">
                        <mxPoint as="offset"/>
                    </mxGeometry>
                </mxCell>
                <mxCell id="102" value="Lister les campagnes chargées" style="ellipse;whiteSpace=wrap;html=1;" parent="1" vertex="1">
                    <mxGeometry x="1800" y="2179" width="150" height="80" as="geometry"/>
                </mxCell>
                <mxCell id="210" value="" style="edgeStyle=none;html=1;dashed=1;fontSize=14;" parent="1" source="103" target="102" edge="1">
                    <mxGeometry relative="1" as="geometry">
                        <Array as="points"/>
                    </mxGeometry>
                </mxCell>
                <mxCell id="221" value="&quot;Include&quot;" style="edgeLabel;html=1;align=center;verticalAlign=middle;resizable=0;points=[];fontSize=14;" parent="210" vertex="1" connectable="0">
                    <mxGeometry x="0.0946" relative="1" as="geometry">
                        <mxPoint x="9" as="offset"/>
                    </mxGeometry>
                </mxCell>
                <mxCell id="103" value="Afficher une campagnes chargées" style="ellipse;whiteSpace=wrap;html=1;" parent="1" vertex="1">
                    <mxGeometry x="2190" y="2179" width="150" height="80" as="geometry"/>
                </mxCell>
                <mxCell id="216" value="" style="edgeStyle=none;html=1;dashed=1;fontSize=14;" parent="1" source="104" target="103" edge="1">
                    <mxGeometry relative="1" as="geometry">
                        <Array as="points"/>
                    </mxGeometry>
                </mxCell>
                <mxCell id="223" value="&quot;Include&quot;" style="edgeLabel;html=1;align=center;verticalAlign=middle;resizable=0;points=[];fontSize=14;" parent="216" vertex="1" connectable="0">
                    <mxGeometry x="0.7963" relative="1" as="geometry">
                        <mxPoint x="45" as="offset"/>
                    </mxGeometry>
                </mxCell>
                <mxCell id="104" value="Afficher les matériels d'une campagne" style="ellipse;whiteSpace=wrap;html=1;" parent="1" vertex="1">
                    <mxGeometry x="2470" y="2179" width="160" height="80" as="geometry"/>
                </mxCell>
                <mxCell id="214" value="" style="edgeStyle=none;html=1;dashed=1;fontSize=14;" parent="1" source="105" target="104" edge="1">
                    <mxGeometry relative="1" as="geometry"/>
                </mxCell>
                <mxCell id="225" value="&quot;Include&quot;" style="edgeLabel;html=1;align=center;verticalAlign=middle;resizable=0;points=[];fontSize=14;" parent="214" vertex="1" connectable="0">
                    <mxGeometry x="0.2383" relative="1" as="geometry">
                        <mxPoint y="-14" as="offset"/>
                    </mxGeometry>
                </mxCell>
                <mxCell id="105" value="Afficher Les pièces des matériels" style="ellipse;whiteSpace=wrap;html=1;" parent="1" vertex="1">
                    <mxGeometry x="2475" y="2049" width="150" height="80" as="geometry"/>
                </mxCell>
                <mxCell id="228" value="" style="edgeStyle=none;html=1;dashed=1;fontSize=14;" parent="1" source="106" target="105" edge="1">
                    <mxGeometry relative="1" as="geometry">
                        <Array as="points"/>
                    </mxGeometry>
                </mxCell>
                <mxCell id="229" value="&quot;Include&quot;" style="edgeLabel;html=1;align=center;verticalAlign=middle;resizable=0;points=[];fontSize=14;" parent="228" vertex="1" connectable="0">
                    <mxGeometry x="0.8195" relative="1" as="geometry">
                        <mxPoint x="78" as="offset"/>
                    </mxGeometry>
                </mxCell>
                <mxCell id="106" value="Afficher le formulaire d'audit d'une pièce" style="ellipse;whiteSpace=wrap;html=1;" parent="1" vertex="1">
                    <mxGeometry x="2810" y="2049" width="160" height="80" as="geometry"/>
                </mxCell>
                <mxCell id="243" style="edgeStyle=none;html=1;dashed=1;fontSize=14;" parent="1" source="107" target="113" edge="1">
                    <mxGeometry relative="1" as="geometry"/>
                </mxCell>
                <mxCell id="246" value="&quot;include&quot;" style="edgeLabel;html=1;align=center;verticalAlign=middle;resizable=0;points=[];fontSize=14;" parent="243" vertex="1" connectable="0">
                    <mxGeometry x="0.2869" y="1" relative="1" as="geometry">
                        <mxPoint x="14" y="-8" as="offset"/>
                    </mxGeometry>
                </mxCell>
                <mxCell id="247" style="edgeStyle=none;html=1;entryX=1;entryY=1;entryDx=0;entryDy=0;dashed=1;fontSize=14;" parent="1" source="107" target="201" edge="1">
                    <mxGeometry relative="1" as="geometry"/>
                </mxCell>
                <mxCell id="248" value="&quot;include&quot;" style="edgeLabel;html=1;align=center;verticalAlign=middle;resizable=0;points=[];fontSize=14;" parent="247" vertex="1" connectable="0">
                    <mxGeometry x="0.3289" y="-1" relative="1" as="geometry">
                        <mxPoint x="9" y="6" as="offset"/>
                    </mxGeometry>
                </mxCell>
                <mxCell id="107" value="Consulter fiche pièce" style="ellipse;whiteSpace=wrap;html=1;" parent="1" vertex="1">
                    <mxGeometry x="2050" y="1619" width="180" height="80" as="geometry"/>
                </mxCell>
                <mxCell id="110" value="Se connecter" style="ellipse;whiteSpace=wrap;html=1;fillColor=none;" parent="1" vertex="1">
                    <mxGeometry x="2690" y="1723.5" width="120" height="80" as="geometry"/>
                </mxCell>
                <mxCell id="197" style="edgeStyle=none;html=1;fontSize=14;dashed=1;" parent="1" source="111" target="110" edge="1">
                    <mxGeometry relative="1" as="geometry">
                        <Array as="points"/>
                    </mxGeometry>
                </mxCell>
                <mxCell id="199" value="&lt;span style=&quot;color: rgba(0, 0, 0, 0); font-family: monospace; font-size: 0px; text-align: start; background-color: rgb(42, 37, 47);&quot;&gt;%3CmxGraphModel%3E%3Croot%3E%3CmxCell%20id%3D%220%22%2F%3E%3CmxCell%20id%3D%221%22%20parent%3D%220%22%2F%3E%3CmxCell%20id%3D%222%22%20value%3D%22%26quot%3Binclude%26quot%3B%22%20style%3D%22edgeLabel%3Bhtml%3D1%3Balign%3Dcenter%3BverticalAlign%3Dmiddle%3Bresizable%3D0%3Bpoints%3D%5B%5D%3BfontSize%3D14%3B%22%20vertex%3D%221%22%20connectable%3D%220%22%20parent%3D%221%22%3E%3CmxGeometry%20x%3D%222058.988253471232%22%20y%3D%221056.0801374337425%22%20as%3D%22geometry%22%2F%3E%3C%2FmxCell%3E%3C%2Froot%3E%3C%2FmxGraphModel%3E&quot;include&lt;/span&gt;" style="edgeLabel;html=1;align=center;verticalAlign=middle;resizable=0;points=[];fontSize=14;" parent="197" vertex="1" connectable="0">
                    <mxGeometry x="-0.6206" y="-1" relative="1" as="geometry">
                        <mxPoint as="offset"/>
                    </mxGeometry>
                </mxCell>
                <mxCell id="253" value="&quot;include&quot;" style="edgeLabel;html=1;align=center;verticalAlign=middle;resizable=0;points=[];fontSize=14;" parent="197" vertex="1" connectable="0">
                    <mxGeometry x="-0.1459" y="-3" relative="1" as="geometry">
                        <mxPoint as="offset"/>
                    </mxGeometry>
                </mxCell>
                <mxCell id="111" value="Se déconnecter" style="ellipse;whiteSpace=wrap;html=1;fillColor=none;" parent="1" vertex="1">
                    <mxGeometry x="1815" y="1949" width="120" height="80" as="geometry"/>
                </mxCell>
                <mxCell id="237" style="edgeStyle=none;html=1;entryX=0;entryY=0;entryDx=0;entryDy=0;dashed=1;fontSize=14;" parent="1" source="112" target="110" edge="1">
                    <mxGeometry relative="1" as="geometry"/>
                </mxCell>
                <mxCell id="251" value="&quot;include&quot;" style="edgeLabel;html=1;align=center;verticalAlign=middle;resizable=0;points=[];fontSize=14;" parent="237" vertex="1" connectable="0">
                    <mxGeometry x="0.1761" relative="1" as="geometry">
                        <mxPoint x="-81" y="-42" as="offset"/>
                    </mxGeometry>
                </mxCell>
                <mxCell id="112" value="Consulter référentiel matériels" style="ellipse;whiteSpace=wrap;html=1;" parent="1" vertex="1">
                    <mxGeometry x="1840" y="1319" width="140" height="80" as="geometry"/>
                </mxCell>
                <mxCell id="234" style="edgeStyle=none;html=1;entryX=0.069;entryY=0.206;entryDx=0;entryDy=0;dashed=1;fontSize=14;entryPerimeter=0;" parent="1" source="113" target="110" edge="1">
                    <mxGeometry relative="1" as="geometry"/>
                </mxCell>
                <mxCell id="252" value="&quot;include&quot;" style="edgeLabel;html=1;align=center;verticalAlign=middle;resizable=0;points=[];fontSize=14;" parent="234" vertex="1" connectable="0">
                    <mxGeometry x="-0.1096" y="-3" relative="1" as="geometry">
                        <mxPoint as="offset"/>
                    </mxGeometry>
                </mxCell>
                <mxCell id="113" value="Consulter référentiel pièces" style="ellipse;whiteSpace=wrap;html=1;" parent="1" vertex="1">
                    <mxGeometry x="1800" y="1759" width="180" height="80" as="geometry"/>
                </mxCell>
                <mxCell id="128" style="edgeStyle=none;html=1;entryX=0;entryY=0.5;entryDx=0;entryDy=0;fontColor=#6600CC;" parent="1" source="125" target="43" edge="1">
                    <mxGeometry relative="1" as="geometry"/>
                </mxCell>
                <mxCell id="132" style="edgeStyle=none;html=1;entryX=0;entryY=0.5;entryDx=0;entryDy=0;fontColor=#6600CC;" parent="1" source="125" target="131" edge="1">
                    <mxGeometry relative="1" as="geometry"/>
                </mxCell>
                <mxCell id="125" value="&lt;font color=&quot;#cf6800&quot;&gt;Responsable Sécurité&lt;/font&gt;" style="shape=umlActor;verticalLabelPosition=bottom;verticalAlign=top;html=1;outlineConnect=0;" parent="1" vertex="1">
                    <mxGeometry x="110" y="529.5" width="60" height="110" as="geometry"/>
                </mxCell>
                <mxCell id="129" value="Se connecter" style="ellipse;whiteSpace=wrap;html=1;fillColor=none;" parent="1" vertex="1">
                    <mxGeometry x="750" y="524" width="120" height="80" as="geometry"/>
                </mxCell>
                <mxCell id="145" style="edgeStyle=none;html=1;entryX=0.5;entryY=1;entryDx=0;entryDy=0;dashed=1;" parent="1" source="131" target="129" edge="1">
                    <mxGeometry relative="1" as="geometry"/>
                </mxCell>
                <mxCell id="151" value="&quot;include&quot;" style="edgeLabel;html=1;align=center;verticalAlign=middle;resizable=0;points=[];fontSize=14;" parent="145" vertex="1" connectable="0">
                    <mxGeometry x="0.202" y="-1" relative="1" as="geometry">
                        <mxPoint x="-22" y="13" as="offset"/>
                    </mxGeometry>
                </mxCell>
                <mxCell id="131" value="Se déconnecter" style="ellipse;whiteSpace=wrap;html=1;fillColor=none;" parent="1" vertex="1">
                    <mxGeometry x="514" y="749.5" width="120" height="80" as="geometry"/>
                </mxCell>
                <mxCell id="191" style="edgeStyle=none;html=1;dashed=1;fontSize=14;entryX=0.38;entryY=1.054;entryDx=0;entryDy=0;entryPerimeter=0;" parent="1" source="174" target="84" edge="1">
                    <mxGeometry relative="1" as="geometry">
                        <mxPoint x="2205" y="290" as="targetPoint"/>
                    </mxGeometry>
                </mxCell>
                <mxCell id="192" value="&quot;include&quot;" style="edgeLabel;html=1;align=center;verticalAlign=middle;resizable=0;points=[];fontSize=14;" parent="191" vertex="1" connectable="0">
                    <mxGeometry x="0.3914" y="-1" relative="1" as="geometry">
                        <mxPoint x="-1" y="26" as="offset"/>
                    </mxGeometry>
                </mxCell>
                <mxCell id="287" style="edgeStyle=none;html=1;exitX=0.5;exitY=1;exitDx=0;exitDy=0;dashed=1;" edge="1" parent="1" source="174" target="181">
                    <mxGeometry relative="1" as="geometry"/>
                </mxCell>
                <mxCell id="288" value="&lt;span style=&quot;font-size: 14px;&quot;&gt;&quot;include&quot;&lt;/span&gt;" style="edgeLabel;html=1;align=center;verticalAlign=middle;resizable=0;points=[];" vertex="1" connectable="0" parent="287">
                    <mxGeometry x="0.3356" relative="1" as="geometry">
                        <mxPoint x="-11" y="-37" as="offset"/>
                    </mxGeometry>
                </mxCell>
                <mxCell id="174" value="Consulter fiche pièce" style="ellipse;whiteSpace=wrap;html=1;" parent="1" vertex="1">
                    <mxGeometry x="2130" y="400" width="150" height="80" as="geometry"/>
                </mxCell>
                <mxCell id="182" style="edgeStyle=none;html=1;entryX=0.616;entryY=-0.012;entryDx=0;entryDy=0;entryPerimeter=0;dashed=1;fontSize=14;" parent="1" source="181" target="85" edge="1">
                    <mxGeometry relative="1" as="geometry"/>
                </mxCell>
                <mxCell id="183" value="&quot;include&quot;" style="edgeLabel;html=1;align=center;verticalAlign=middle;resizable=0;points=[];fontSize=14;" parent="182" vertex="1" connectable="0">
                    <mxGeometry x="-0.4014" y="-2" relative="1" as="geometry">
                        <mxPoint x="-14" y="15" as="offset"/>
                    </mxGeometry>
                </mxCell>
                <mxCell id="181" value="Consulter fiche matériel" style="ellipse;whiteSpace=wrap;html=1;" parent="1" vertex="1">
                    <mxGeometry x="2170" y="639.5" width="150" height="80" as="geometry"/>
                </mxCell>
                <mxCell id="249" value="" style="edgeStyle=none;html=1;dashed=1;fontSize=14;" parent="1" source="201" target="112" edge="1">
                    <mxGeometry relative="1" as="geometry"/>
                </mxCell>
                <mxCell id="250" value="&quot;include&quot;" style="edgeLabel;html=1;align=center;verticalAlign=middle;resizable=0;points=[];fontSize=14;" parent="249" vertex="1" connectable="0">
                    <mxGeometry x="0.4979" y="-3" relative="1" as="geometry">
                        <mxPoint x="3" y="30" as="offset"/>
                    </mxGeometry>
                </mxCell>
                <mxCell id="201" value="Consulter fiche matériel" style="ellipse;whiteSpace=wrap;html=1;" parent="1" vertex="1">
                    <mxGeometry x="1820" y="1479" width="180" height="80" as="geometry"/>
                </mxCell>
                <mxCell id="277" style="edgeStyle=none;html=1;entryX=1;entryY=0.5;entryDx=0;entryDy=0;fontSize=14;dashed=1;" parent="1" source="262" target="52" edge="1">
                    <mxGeometry relative="1" as="geometry"/>
                </mxCell>
                <mxCell id="281" value="&quot;include&quot;" style="edgeLabel;html=1;align=center;verticalAlign=middle;resizable=0;points=[];fontSize=14;" parent="277" vertex="1" connectable="0">
                    <mxGeometry x="-0.5848" y="-2" relative="1" as="geometry">
                        <mxPoint x="-45" y="2" as="offset"/>
                    </mxGeometry>
                </mxCell>
                <mxCell id="262" value="Consulter fiche pièce" style="ellipse;whiteSpace=wrap;html=1;" parent="1" vertex="1">
                    <mxGeometry x="849" y="1301" width="150" height="80" as="geometry"/>
                </mxCell>
                <mxCell id="279" style="edgeStyle=none;html=1;exitX=0.5;exitY=1;exitDx=0;exitDy=0;dashed=1;fontSize=14;" parent="1" source="263" target="55" edge="1">
                    <mxGeometry relative="1" as="geometry"/>
                </mxCell>
                <mxCell id="280" value="&quot;include&quot;" style="edgeLabel;html=1;align=center;verticalAlign=middle;resizable=0;points=[];fontSize=14;" parent="279" vertex="1" connectable="0">
                    <mxGeometry x="-0.3767" relative="1" as="geometry">
                        <mxPoint x="5" y="15" as="offset"/>
                    </mxGeometry>
                </mxCell>
                <mxCell id="263" value="Consulter fiche matériel" style="ellipse;whiteSpace=wrap;html=1;" parent="1" vertex="1">
                    <mxGeometry x="424" y="1461" width="150" height="80" as="geometry"/>
                </mxCell>
                <mxCell id="265" style="edgeStyle=none;html=1;entryX=0;entryY=0.5;entryDx=0;entryDy=0;dashed=1;fontSize=14;" parent="1" source="264" target="49" edge="1">
                    <mxGeometry relative="1" as="geometry"/>
                </mxCell>
                <mxCell id="269" value="&lt;span style=&quot;color: rgba(0, 0, 0, 0); font-family: monospace; font-size: 0px; text-align: start; background-color: rgb(42, 37, 47);&quot;&gt;%3CmxGraphModel%3E%3Croot%3E%3CmxCell%20id%3D%220%22%2F%3E%3CmxCell%20id%3D%221%22%20parent%3D%220%22%2F%3E%3CmxCell%20id%3D%222%22%20value%3D%22Consulter%20r%C3%A9f%C3%A9rentiel%20mat%C3%A9riels%22%20style%3D%22ellipse%3BwhiteSpace%3Dwrap%3Bhtml%3D1%3B%22%20vertex%3D%221%22%20parent%3D%221%22%3E%3CmxGeometry%20x%3D%221610%22%20y%3D%22870%22%20width%3D%22180%22%20height%3D%2280%22%20as%3D%22geometry%22%2F%3E%3C%2FmxCell%3E%3CmxCell%20id%3D%223%22%20value%3D%22Consulter%20fiche%20pi%C3%A8ce%22%20style%3D%22ellipse%3BwhiteSpace%3Dwrap%3Bhtml%3D1%3B%22%20vertex%3D%221%22%20parent%3D%221%22%3E%3CmxGeometry%20x%3D%221740%22%20y%3D%22460%22%20width%3D%22150%22%20height%3D%2280%22%20as%3D%22geometry%22%2F%3E%3C%2FmxCell%3E%3CmxCell%20id%3D%224%22%20value%3D%22Consulter%20fiche%20mat%C3%A9riel%22%20style%3D%22ellipse%3BwhiteSpace%3Dwrap%3Bhtml%3D1%3B%22%20vertex%3D%221%22%20parent%3D%221%22%3E%3CmxGeometry%20x%3D%221747%22%20y%3D%22639.5%22%20width%3D%22150%22%20height%3D%2280%22%20as%3D%22geometry%22%2F%3E%3C%2FmxCell%3E%3C%2Froot%3E%3C%2FmxGraphModel%3E&lt;/span&gt;" style="edgeLabel;html=1;align=center;verticalAlign=middle;resizable=0;points=[];fontSize=14;" parent="265" vertex="1" connectable="0">
                    <mxGeometry x="-0.4598" y="3" relative="1" as="geometry">
                        <mxPoint as="offset"/>
                    </mxGeometry>
                </mxCell>
                <mxCell id="270" value="&quot;include&quot;" style="edgeLabel;html=1;align=center;verticalAlign=middle;resizable=0;points=[];fontSize=14;" parent="265" vertex="1" connectable="0">
                    <mxGeometry x="-0.5897" y="-2" relative="1" as="geometry">
                        <mxPoint x="100" as="offset"/>
                    </mxGeometry>
                </mxCell>
                <mxCell id="264" value="Consulter campagnes" style="ellipse;whiteSpace=wrap;html=1;" parent="1" vertex="1">
                    <mxGeometry x="409" y="1771" width="150" height="80" as="geometry"/>
                </mxCell>
                <mxCell id="290" style="edgeStyle=none;html=1;dashed=1;" edge="1" parent="1" source="289" target="106">
                    <mxGeometry relative="1" as="geometry"/>
                </mxCell>
                <mxCell id="291" value="&lt;span style=&quot;font-size: 14px;&quot;&gt;&quot;include&quot;&lt;/span&gt;" style="edgeLabel;html=1;align=center;verticalAlign=middle;resizable=0;points=[];" vertex="1" connectable="0" parent="290">
                    <mxGeometry x="0.3833" relative="1" as="geometry">
                        <mxPoint x="27" as="offset"/>
                    </mxGeometry>
                </mxCell>
                <mxCell id="289" value="Répondre au formulaire d'audit" style="ellipse;whiteSpace=wrap;html=1;" vertex="1" parent="1">
                    <mxGeometry x="3110" y="2049" width="160" height="80" as="geometry"/>
                </mxCell>
                <mxCell id="293" style="edgeStyle=none;html=1;dashed=1;" edge="1" parent="1" source="292" target="289">
                    <mxGeometry relative="1" as="geometry"/>
                </mxCell>
                <mxCell id="294" value="&lt;span style=&quot;font-size: 14px;&quot;&gt;&quot;include&quot;&lt;/span&gt;" style="edgeLabel;html=1;align=center;verticalAlign=middle;resizable=0;points=[];" vertex="1" connectable="0" parent="293">
                    <mxGeometry x="0.4273" y="1" relative="1" as="geometry">
                        <mxPoint x="28" y="-1" as="offset"/>
                    </mxGeometry>
                </mxCell>
                <mxCell id="292" value="&lt;span style=&quot;font-size: 14px; background-color: rgb(24, 20, 29);&quot;&gt;Terminer la campagne&lt;/span&gt;" style="ellipse;whiteSpace=wrap;html=1;" vertex="1" parent="1">
                    <mxGeometry x="3380" y="2049" width="160" height="80" as="geometry"/>
                </mxCell>
                <mxCell id="296" style="edgeStyle=none;html=1;dashed=1;" edge="1" parent="1" source="295" target="292">
                    <mxGeometry relative="1" as="geometry"/>
                </mxCell>
                <mxCell id="297" value="&lt;span style=&quot;font-size: 14px;&quot;&gt;&quot;include&quot;&lt;/span&gt;" style="edgeLabel;html=1;align=center;verticalAlign=middle;resizable=0;points=[];" vertex="1" connectable="0" parent="296">
                    <mxGeometry x="0.4256" y="-1" relative="1" as="geometry">
                        <mxPoint x="24" y="1" as="offset"/>
                    </mxGeometry>
                </mxCell>
                <mxCell id="295" value="&lt;span style=&quot;font-size: 14px; background-color: rgb(24, 20, 29);&quot;&gt;Synchroniser la campagne&lt;/span&gt;" style="ellipse;whiteSpace=wrap;html=1;" vertex="1" parent="1">
                    <mxGeometry x="3630" y="2049" width="160" height="80" as="geometry"/>
                </mxCell>
                <mxCell id="299" style="edgeStyle=none;html=1;dashed=1;" edge="1" parent="1" source="298" target="295">
                    <mxGeometry relative="1" as="geometry"/>
                </mxCell>
                <mxCell id="300" value="&lt;span style=&quot;font-size: 14px;&quot;&gt;&quot;include&quot;&lt;/span&gt;" style="edgeLabel;html=1;align=center;verticalAlign=middle;resizable=0;points=[];" vertex="1" connectable="0" parent="299">
                    <mxGeometry x="0.3614" y="-1" relative="1" as="geometry">
                        <mxPoint x="21" y="1" as="offset"/>
                    </mxGeometry>
                </mxCell>
                <mxCell id="298" value="&lt;span style=&quot;font-size: 14px; background-color: rgb(24, 20, 29);&quot;&gt;Clôturer la campagne&lt;/span&gt;" style="ellipse;whiteSpace=wrap;html=1;" vertex="1" parent="1">
                    <mxGeometry x="3880" y="2049" width="160" height="80" as="geometry"/>
                </mxCell>
            </root>
        </mxGraphModel>
    </diagram>
</mxfile>